<?xml version="1.0" standalone="no"?>
<!DOCTYPE svg PUBLIC "-//W3C//DTD SVG 20010904//EN"
 "http://www.w3.org/TR/2001/REC-SVG-20010904/DTD/svg10.dtd">
<svg version="1.0" xmlns="http://www.w3.org/2000/svg"
 width="1763.000000pt" height="1763.000000pt" viewBox="0 0 1763.000000 1763.000000"
 preserveAspectRatio="xMidYMid meet">
<metadata>
Created by potrace 1.14, written by Peter Selinger 2001-2017
</metadata>
<g transform="translate(0.000000,1763.000000) scale(0.100000,-0.100000)"
fill="#000000" stroke="none">
<path d="M8419 17096 c-2 -2 -71 -7 -152 -11 -82 -3 -156 -8 -165 -10 -9 -1
-62 -6 -117 -10 -55 -4 -106 -8 -115 -10 -8 -1 -46 -6 -85 -9 -38 -4 -81 -9
-95 -11 -14 -2 -50 -7 -80 -10 -51 -6 -189 -25 -285 -41 -34 -5 -283 -50 -380
-69 -361 -68 -890 -217 -1300 -365 -246 -89 -705 -281 -813 -339 -9 -6 -87
-44 -172 -87 -85 -42 -173 -87 -195 -99 -22 -12 -69 -38 -105 -58 -126 -68
-316 -181 -495 -295 -913 -582 -1713 -1332 -2342 -2197 -81 -112 -258 -374
-307 -455 -15 -25 -41 -67 -58 -95 -130 -209 -369 -662 -475 -900 -344 -774
-575 -1646 -648 -2455 -4 -36 -8 -83 -10 -105 -27 -272 -27 -1123 0 -1297 2
-13 6 -57 9 -98 18 -224 75 -606 126 -840 11 -52 25 -115 30 -140 75 -376 300
-1057 481 -1456 352 -780 769 -1432 1326 -2071 297 -341 680 -715 988 -963 44
-36 82 -67 85 -70 3 -3 46 -37 95 -76 1087 -856 2404 -1461 3784 -1739 214
-43 507 -92 666 -111 33 -3 68 -8 77 -10 9 -1 48 -5 85 -9 37 -3 77 -8 88 -10
11 -2 65 -7 120 -10 55 -4 108 -9 118 -11 60 -11 377 -19 747 -19 471 0 638
10 1095 61 103 11 335 45 475 70 80 14 159 28 175 31 269 45 805 186 1170 308
1663 555 3098 1559 4160 2910 266 338 492 681 733 1110 213 380 445 918 590
1365 114 352 240 867 275 1120 6 39 26 171 33 210 2 14 11 84 19 155 8 72 17
148 20 170 2 22 7 76 10 120 4 44 9 100 11 125 2 25 6 227 8 450 4 367 0 521
-18 719 -4 36 -9 91 -11 121 -6 63 -33 287 -41 340 -49 323 -78 472 -140 730
-278 1152 -806 2217 -1568 3165 -87 108 -244 293 -310 364 -187 202 -367 384
-526 531 -137 127 -142 132 -270 240 -36 30 -67 57 -70 60 -5 5 -102 85 -130
107 -8 6 -40 32 -70 56 -169 135 -467 347 -680 483 -1091 699 -2258 1137
-3565 1340 -16 2 -41 6 -55 9 -14 2 -43 7 -65 9 -178 23 -291 36 -355 41 -41
4 -86 8 -100 10 -14 2 -63 6 -110 10 -47 3 -121 8 -165 12 -90 7 -949 15 -956
9z"/>
</g>
</svg>
